<svg width="24" height="24" viewBox="0 0 24 24" fill="none" xmlns="http://www.w3.org/2000/svg">
<path d="M4.99295 12.984C4.77572 12.9837 4.56433 13.0543 4.39075 13.1849C4.21716 13.3155 4.09082 13.499 4.03083 13.7078C3.97084 13.9166 3.98047 14.1392 4.05825 14.342C4.13603 14.5449 4.27774 14.7168 4.46195 14.832L7.14995 17.52C7.24286 17.6128 7.35315 17.6864 7.47451 17.7367C7.59588 17.7869 7.72595 17.8127 7.8573 17.8127C7.98865 17.8126 8.1187 17.7867 8.24004 17.7364C8.36137 17.6861 8.4716 17.6124 8.56445 17.5195C8.65729 17.4265 8.73093 17.3163 8.78115 17.1949C8.83137 17.0735 8.8572 16.9435 8.85715 16.8121C8.8571 16.6808 8.83119 16.5507 8.78088 16.4294C8.73057 16.308 8.65686 16.1978 8.56395 16.105L7.44295 14.985H14.9929C15.2582 14.985 15.5125 14.8796 15.7001 14.6921C15.8876 14.5045 15.9929 14.2502 15.9929 13.985C15.9929 13.7197 15.8876 13.4654 15.7001 13.2779C15.5125 13.0903 15.2582 12.985 14.9929 12.985H4.99295V12.984ZM19.0069 11.016C19.2242 11.0162 19.4356 10.9457 19.6091 10.8151C19.7827 10.6845 19.9091 10.5009 19.9691 10.2921C20.0291 10.0833 20.0194 9.86071 19.9416 9.65789C19.8639 9.45507 19.7222 9.28309 19.5379 9.16796L16.8499 6.47996C16.6623 6.29245 16.4079 6.18716 16.1426 6.18726C15.8773 6.18735 15.623 6.29282 15.4354 6.48046C15.2479 6.6681 15.1427 6.92254 15.1427 7.18781C15.1428 7.45308 15.2483 7.70745 15.4359 7.89496L16.5569 9.01496H9.00695C8.74173 9.01496 8.48738 9.12031 8.29984 9.30785C8.11231 9.49539 8.00695 9.74974 8.00695 10.015C8.00695 10.2802 8.11231 10.5345 8.29984 10.7221C8.48738 10.9096 8.74173 11.015 9.00695 11.015H19.0069V11.016Z" fill="white"/>
</svg>
