<svg width="24" height="24" viewBox="0 0 24 24" fill="none" xmlns="http://www.w3.org/2000/svg">
<path fill-rule="evenodd" clip-rule="evenodd" d="M3.17157 3.17163C2 4.3432 2 6.22882 2 10.0001V14.0001C2 17.7713 2 19.6569 3.17157 20.8285C4.34315 22.0001 6.22876 22.0001 10 22.0001H14C17.7712 22.0001 19.6569 22.0001 20.8284 20.8285C22 19.6569 22 17.7713 22 14.0001V14.0001V10.0001C22 7.16071 22 5.39023 21.5 4.18862V17.0001C20.5396 17.0001 19.6185 16.6185 18.9393 15.9394L18.1877 15.1877C17.4664 14.4664 17.1057 14.1058 16.6968 13.9538C16.2473 13.7867 15.7527 13.7867 15.3032 13.9538C14.8943 14.1058 14.5336 14.4664 13.8123 15.1877L13.6992 15.3009C13.1138 15.8862 12.8212 16.1789 12.5102 16.2335C12.2685 16.2759 12.0197 16.228 11.811 16.0988C11.5425 15.9327 11.3795 15.5522 11.0534 14.7913L11 14.6667C10.2504 12.9176 9.87554 12.043 9.22167 11.7152C8.89249 11.5502 8.52413 11.4792 8.1572 11.5102C7.42836 11.5717 6.75554 12.2445 5.40989 13.5902L3.5 15.5001V2.88745C3.3844 2.97355 3.27519 3.06801 3.17157 3.17163Z" fill="white"/>
<path d="M3 10C3 8.08611 3.00212 6.75129 3.13753 5.74416C3.26907 4.76579 3.50966 4.2477 3.87868 3.87868C4.2477 3.50966 4.76579 3.26907 5.74416 3.13753C6.75129 3.00212 8.08611 3 10 3H14C15.9139 3 17.2487 3.00212 18.2558 3.13753C19.2342 3.26907 19.7523 3.50966 20.1213 3.87868C20.4903 4.2477 20.7309 4.76579 20.8625 5.74416C20.9979 6.75129 21 8.08611 21 10V14C21 15.9139 20.9979 17.2487 20.8625 18.2558C20.7309 19.2342 20.4903 19.7523 20.1213 20.1213C19.7523 20.4903 19.2342 20.7309 18.2558 20.8625C17.2487 20.9979 15.9139 21 14 21H10C8.08611 21 6.75129 20.9979 5.74416 20.8625C4.76579 20.7309 4.2477 20.4903 3.87868 20.1213C3.50966 19.7523 3.26907 19.2342 3.13753 18.2558C3.00212 17.2487 3 15.9139 3 14V10Z" stroke="white" stroke-width="2"/>
<circle cx="15" cy="9" r="2" fill="white"/>
</svg>
