<svg width="24" height="24" viewBox="0 0 24 24" fill="none" xmlns="http://www.w3.org/2000/svg">
<path d="M21.3333 0H2.66667C1.2 0 0 1.2 0 2.66667V21.3333C0 22.8013 1.2 24 2.66667 24H21.3333C22.8 24 24 22.8013 24 21.3333V2.66667C24 1.2 22.8 0 21.3333 0ZM11.9787 19.364C13.9371 19.3636 15.8153 18.5854 17.2 17.2004C18.5848 15.8154 19.3627 13.9371 19.3627 11.9787C19.3627 11.528 19.3053 11.0933 19.2253 10.6667H21.3333V20.288C21.3333 20.4092 21.3094 20.5291 21.2629 20.641C21.2164 20.7529 21.1483 20.8545 21.0625 20.94C20.9766 21.0254 20.8747 21.0931 20.7626 21.1391C20.6506 21.1851 20.5305 21.2085 20.4093 21.208H3.59067C3.46951 21.2085 3.34945 21.1851 3.23737 21.1391C3.12529 21.0931 3.0234 21.0254 2.93754 20.94C2.85169 20.8545 2.78356 20.7529 2.73708 20.641C2.69059 20.5291 2.66667 20.4092 2.66667 20.288V10.6667H4.732C4.65067 11.0933 4.59333 11.528 4.59333 11.9787C4.59369 13.9373 5.3719 15.8156 6.75684 17.2005C8.14178 18.5854 10.0201 19.3636 11.9787 19.364ZM7.364 11.9787C7.364 11.3727 7.48336 10.7726 7.71527 10.2127C7.94718 9.65283 8.28709 9.14412 8.7156 8.7156C9.14412 8.28709 9.65283 7.94718 10.2127 7.71527C10.7726 7.48336 11.3727 7.364 11.9787 7.364C12.5847 7.364 13.1847 7.48336 13.7446 7.71527C14.3045 7.94718 14.8132 8.28709 15.2417 8.7156C15.6702 9.14412 16.0102 9.65283 16.2421 10.2127C16.474 10.7726 16.5933 11.3727 16.5933 11.9787C16.5933 13.2026 16.1071 14.3763 15.2417 15.2417C14.3763 16.1071 13.2026 16.5933 11.9787 16.5933C10.7548 16.5933 9.58102 16.1071 8.7156 15.2417C7.85019 14.3763 7.364 13.2026 7.364 11.9787ZM20.4093 6.66667H18.256C18.0115 6.66596 17.7772 6.56853 17.6044 6.39565C17.4315 6.22277 17.334 5.98849 17.3333 5.744V3.588C17.3333 3.07867 17.7467 2.66667 18.2547 2.66667H20.408C20.92 2.66667 21.3333 3.07867 21.3333 3.588V5.74267C21.3333 6.25067 20.92 6.66667 20.4093 6.66667Z" fill="white"/>
</svg>
