<svg width="32" height="32" viewBox="0 0 32 32" fill="none" xmlns="http://www.w3.org/2000/svg">
<path d="M16 29.3332C14.5273 29.3332 13.3334 28.1393 13.3334 26.6666H18.6667C18.6667 28.1393 17.4728 29.3332 16 29.3332ZM26.6667 25.3332H5.33337V23.2846C5.33337 22.9058 5.54738 22.5596 5.88616 22.3902L8.00004 21.3332V13.9999C7.9298 12.1187 8.35462 10.2521 9.23204 8.58656C10.1054 7.04191 11.5983 5.94507 13.3334 5.57323V3.66656C13.3334 3.11428 13.7811 2.66656 14.3334 2.66656H18.1947C16.4619 4.60314 16.1727 7.43509 17.4783 9.68195C18.7839 11.9288 21.3875 13.0798 23.928 12.5332C23.9747 13.0092 23.9974 13.5026 23.9974 13.9999V21.3332L26.664 22.6666V25.3332H26.6667ZM22.6667 10.6666C20.5463 10.6633 18.7969 9.00596 18.6791 6.88886C18.5613 4.77176 20.1159 2.93055 22.2228 2.69197C24.3298 2.45339 26.2568 3.90035 26.6153 5.9902C26.9739 8.08005 25.6393 10.0866 23.5734 10.5639C23.276 10.6322 22.9718 10.6666 22.6667 10.6666Z" fill="white"/>
</svg>
