<svg width="32" height="32" viewBox="0 0 32 32" fill="none" xmlns="http://www.w3.org/2000/svg">
<path d="M15.9999 29.3334C14.528 29.3262 13.3345 28.1386 13.3199 26.6667H18.6533C18.6561 27.0232 18.5881 27.3767 18.4533 27.7067C18.1035 28.5094 17.389 29.0949 16.5333 29.2801H16.5266H16.5066H16.4826H16.4706C16.3157 29.3123 16.1581 29.3302 15.9999 29.3334ZM26.6666 25.3334H5.33325V22.6667L7.99992 21.3334V14.0001C7.92967 12.1189 8.3545 10.2522 9.23192 8.58675C10.1053 7.0421 11.5982 5.94525 13.3333 5.57341V3.66675C13.3333 3.11446 13.781 2.66675 14.3333 2.66675H17.6666C18.2189 2.66675 18.6666 3.11446 18.6666 3.66675V5.57341C22.1053 6.39208 23.9999 9.38408 23.9999 14.0001V21.3334L26.6666 22.6667V25.3334Z" fill="white"/>
</svg>
