<svg width="24" height="24" viewBox="0 0 24 24" fill="none" xmlns="http://www.w3.org/2000/svg">
<path fill-rule="evenodd" clip-rule="evenodd" d="M9.93929 12.6465L7.69205 11.8975L7.69205 11.8975L7.69204 11.8975C5.33883 11.1131 4.16223 10.7209 4.16223 10.0001C4.16223 9.27934 5.33884 8.88713 7.69205 8.10273L16.2052 5.26501C17.861 4.71308 18.6889 4.43711 19.1259 4.87413C19.5629 5.31114 19.287 6.13904 18.735 7.79483L15.8973 16.308L15.8973 16.308L15.8973 16.308C15.1129 18.6612 14.7207 19.8378 14 19.8378C13.2792 19.8378 12.887 18.6612 12.1026 16.308L11.3535 14.0608L15.7071 9.7072C16.0976 9.31668 16.0976 8.68351 15.7071 8.29299C15.3165 7.90246 14.6834 7.90246 14.2928 8.29299L9.93929 12.6465Z" fill="white"/>
</svg>
