<svg width="24" height="24" viewBox="0 0 24 24" fill="none" xmlns="http://www.w3.org/2000/svg">
<path fill-rule="evenodd" clip-rule="evenodd" d="M9.93942 12.6464L7.69217 11.8974L7.69217 11.8974L7.69216 11.8974C5.33896 11.113 4.16235 10.7208 4.16235 10C4.16235 9.27924 5.33896 8.88704 7.69218 8.10263L16.2053 5.26491C17.8611 4.71298 18.689 4.43702 19.126 4.87403C19.5631 5.31105 19.2871 6.13894 18.7352 7.79473L15.8974 16.3079L15.8974 16.3079L15.8974 16.3079C15.113 18.6611 14.7208 19.8377 14.0001 19.8377C13.2793 19.8377 12.8871 18.6611 12.1027 16.3079L11.3536 14.0607L15.7072 9.70711C16.0977 9.31658 16.0977 8.68342 15.7072 8.29289C15.3167 7.90237 14.6835 7.90237 14.293 8.29289L9.93942 12.6464Z" fill="white"/>
</svg>
